<?xml version="1.0" encoding="UTF-8" standalone="no"?>
<!DOCTYPE svg PUBLIC "-//W3C//DTD SVG 1.0//EN" "http://www.w3.org/TR/2001/PR-SVG-20010719/DTD/svg10.dtd">
<svg width="31cm" height="14cm" viewBox="232 157 620 272" xmlns="http://www.w3.org/2000/svg" xmlns:xlink="http://www.w3.org/1999/xlink">
  <g>
    <rect style="fill: #ffa1a1" x="233.836" y="181.703" width="170.3" height="36" rx="10" ry="10"/>
    <rect style="fill: none; fill-opacity:0; stroke-width: 2; stroke: #000000" x="233.836" y="181.703" width="170.3" height="36" rx="10" ry="10"/>
    <text font-size="12.7998" style="fill: #000000;text-anchor:middle;font-family:sans-serif;font-style:normal;font-weight:normal" x="318.986" y="203.603">
      <tspan x="318.986" y="203.603">Garment Segmentation</tspan>
    </text>
  </g>
  <g>
    <rect style="fill: #ddffd8" x="461" y="174" width="154.45" height="52" rx="10" ry="10"/>
    <rect style="fill: none; fill-opacity:0; stroke-width: 2; stroke: #000000" x="461" y="174" width="154.45" height="52" rx="10" ry="10"/>
    <text font-size="12.7998" style="fill: #000000;text-anchor:middle;font-family:sans-serif;font-style:normal;font-weight:normal" x="538.225" y="195.9">
      <tspan x="538.225" y="195.9">Garment Depth Map </tspan>
      <tspan x="538.225" y="211.9">Clustering</tspan>
    </text>
  </g>
  <g>
    <rect style="fill: #bcd5ff" x="679.055" y="174.055" width="171.95" height="52" rx="10" ry="10"/>
    <rect style="fill: none; fill-opacity:0; stroke-width: 2; stroke: #000000" x="679.055" y="174.055" width="171.95" height="52" rx="10" ry="10"/>
    <text font-size="12.7998" style="fill: #000000;text-anchor:middle;font-family:sans-serif;font-style:normal;font-weight:normal" x="765.03" y="195.955">
      <tspan x="765.03" y="195.955">Garment Pick and Place</tspan>
      <tspan x="765.03" y="211.955">Points</tspan>
    </text>
  </g>
  <g>
    <polyline style="fill: none; fill-opacity:0; stroke-width: 2; stroke: #000000" points="404.136,199.703 432.568,199.703 432.568,200 456.528,200 "/>
    <polyline style="fill: none; fill-opacity:0; stroke-width: 2; stroke: #000000" points="448.764,205 458.764,200 448.764,195 "/>
  </g>
  <g>
    <polyline style="fill: none; fill-opacity:0; stroke-width: 2; stroke: #000000" points="615.45,200 647.252,200 647.252,200.055 674.583,200.055 "/>
    <polyline style="fill: none; fill-opacity:0; stroke-width: 2; stroke: #000000" points="666.819,205.055 676.819,200.055 666.819,195.055 "/>
  </g>
  <g>
    <rect style="fill: none; fill-opacity:0; stroke-width: 2; stroke: #000000" x="467.377" y="252.46" width="141.718" height="177.311"/>
    <image x="468.377" y="253.46" width="139.718" height="175.311" xlink:href="file:///home/def/Research/master-thesis/figures/TEO-2.png"/>
  </g>
  <g>
    <polyline style="fill: none; fill-opacity:0; stroke-width: 2; stroke: #000000" points="468.377,341.115 468.377,340.586 318.986,340.586 318.986,222.175 "/>
    <polyline style="fill: none; fill-opacity:0; stroke-width: 2; stroke: #000000" points="323.986,229.939 318.986,219.939 313.986,229.939 "/>
    <text font-size="12.7998" style="fill: #000000;text-anchor:middle;font-family:sans-serif;font-style:normal;font-weight:normal" x="382.137" y="359.876">Sensor Data</text>
  </g>
  <g>
    <polyline style="fill: none; fill-opacity:0; stroke-width: 2; stroke: #000000" points="765.03,226.055 765.03,341.115 612.567,341.115 "/>
    <polyline style="fill: none; fill-opacity:0; stroke-width: 2; stroke: #000000" points="620.331,336.115 610.331,341.115 620.331,346.115 "/>
    <text font-size="12.7998" style="fill: #000000;text-anchor:middle;font-family:sans-serif;font-style:normal;font-weight:normal" x="711.534" y="360.849">Manipulation Trajectories</text>
  </g>
</svg>
